<svg width="38" height="38" viewBox="0 0 38 38" fill="none" xmlns="http://www.w3.org/2000/svg">
<path d="M26 0H12C5.37258 0 0 5.37258 0 12V26C0 32.6274 5.37258 38 12 38H26C32.6274 38 38 32.6274 38 26V12C38 5.37258 32.6274 0 26 0Z" fill="#F99E42" fill-opacity="0.2"/>
<path d="M22.9028 8.11626L15.0601 8.15146C14.7769 8.15259 14.546 8.38348 14.5449 8.66673L14.5447 8.69996C14.5425 9.18079 14.7277 9.63218 15.0662 9.97065C15.2842 10.1887 15.5494 10.3421 15.8388 10.4238L15.2229 18.0507C14.6281 18.0867 14.0726 18.3364 13.6462 18.7628C13.1867 19.2224 12.932 19.8316 12.9292 20.4785L12.929 20.5277C12.9276 20.811 13.1563 21.0397 13.4396 21.0383L18.138 21.0172L18.1174 25.5931C18.1183 25.6859 18.1414 27.8847 18.3103 29.484C18.4709 31.0068 18.4905 31.2957 18.4914 31.3106C18.5077 31.5798 18.7299 31.788 19.0001 31.7875C19.1415 31.7871 19.2707 31.7293 19.3645 31.6355C19.45 31.55 19.5061 31.4347 19.5153 31.306C19.5162 31.2947 19.5372 31.0118 19.7128 29.4777C19.8959 27.877 19.9388 25.6778 19.9405 25.5777L19.961 21.0092L24.4078 20.9892C24.5495 20.9887 24.678 20.9306 24.7712 20.8374C24.8645 20.7442 24.9226 20.6156 24.9231 20.474L24.9233 20.4248C24.9263 19.7779 24.677 19.1709 24.2217 18.7155C23.7991 18.2929 23.2457 18.0483 22.6513 18.0175L22.1038 10.3958C22.394 10.3115 22.6605 10.1557 22.8805 9.93572C23.2221 9.59412 23.4114 9.14119 23.4134 8.66029L23.4136 8.62707C23.4148 8.34359 23.1861 8.11491 22.9028 8.11626Z" fill="#F99E42"/>
</svg>
